<svg xmlns="http://www.w3.org/2000/svg" width="900" height="520" viewBox="0 0 900 520">
<defs>
  <linearGradient id="bg" x1="0%" y1="0%" x2="100%" y2="100%">
    <stop offset="0%" stop-color="#0B0B0F"/>
    <stop offset="100%" stop-color="#16181D"/>
  </linearGradient>
  <linearGradient id="accent" x1="0%" x2="100%">
    <stop offset="0%" stop-color="#8B5CF6"/>
    <stop offset="50%" stop-color="#14B8A6"/>
    <stop offset="100%" stop-color="#F97316"/>
  </linearGradient>
  <filter id="blur"><feGaussianBlur stdDeviation="40"/></filter>
</defs>

<rect width="900" height="520" rx="28" fill="url(#bg)"/>
<circle cx="760" cy="80" r="70" fill="#8B5CF6" opacity=".18" filter="url(#blur)"/>
<circle cx="130" cy="420" r="75" fill="#14B8A6" opacity=".14" filter="url(#blur)"/>

<text x="60" y="72" fill="#F8FAFC"
font-size="36"
font-family="Segoe UI,Arial"
font-weight="700">
PREYTweet
</text>

<text x="60" y="108"
fill="#A1A1AA"
font-size="18"
font-family="Segoe UI,Arial">
Backend-focused social platform exploring scalable web architecture.
</text>

<line x1="60" y1="135" x2="840" y2="135"
stroke="#2A2A2F"/>

<text x="60" y="185" fill="#FAFAFA" font-size="22" font-family="Segoe UI" font-weight="600">Highlights</text>

<text x="80" y="225" fill="#D4D4D8" font-size="18">✓ JWT Authentication</text>
<text x="80" y="260" fill="#D4D4D8" font-size="18">✓ Redis Caching</text>
<text x="80" y="295" fill="#D4D4D8" font-size="18">✓ Socket.IO Messaging</text>
<text x="80" y="330" fill="#D4D4D8" font-size="18">✓ Dockerized Backend</text>
<text x="80" y="365" fill="#D4D4D8" font-size="18">✓ Cloudinary Media Pipeline</text>

<rect x="520" y="175" width="280" height="170" rx="18" fill="#111318" stroke="#2F3138"/>
<text x="545" y="210" fill="#FAFAFA" font-size="20" font-weight="600">Architecture</text>
<text x="545" y="245" fill="#A1A1AA" font-size="16">Client</text>
<text x="545" y="270" fill="#A1A1AA" font-size="16">↓</text>
<text x="545" y="295" fill="#A1A1AA" font-size="16">REST API + Socket.IO</text>
<text x="545" y="320" fill="#A1A1AA" font-size="16">↓</text>
<text x="545" y="345" fill="#A1A1AA" font-size="16">Redis → MongoDB</text>

<rect x="60" y="430" width="110" height="36" rx="18" fill="#1E293B"/>
<text x="88" y="453" fill="#FAFAFA" font-size="15">React</text>

<rect x="180" y="430" width="110" height="36" rx="18" fill="#1E293B"/>
<text x="205" y="453" fill="#FAFAFA" font-size="15">Node.js</text>

<rect x="300" y="430" width="110" height="36" rx="18" fill="#1E293B"/>
<text x="328" y="453" fill="#FAFAFA" font-size="15">Redis</text>

<rect x="420" y="430" width="110" height="36" rx="18" fill="#1E293B"/>
<text x="446" y="453" fill="#FAFAFA" font-size="15">Docker</text>

<line x1="0" y1="516" x2="900" y2="516" stroke="url(#accent)" stroke-width="4"/>
</svg>
